<svg xmlns="http://www.w3.org/2000/svg" version="1.1" xmlns:xlink="http://www.w3.org/1999/xlink" xmlns:svgjs="http://svgjs.dev/svgjs" width="1440" height="560" preserveAspectRatio="none" viewBox="0 0 1440 560"><g mask="url(&quot;#SvgjsMask1001&quot;)" fill="none"><path d="M 0,205 C 57.6,183.2 172.8,92.6 288,96 C 403.2,99.4 460.8,239 576,222 C 691.2,205 748.8,1 864,11 C 979.2,21 1036.8,252.6 1152,272 C 1267.2,291.4 1382.4,140.8 1440,108L1440 560L0 560z" fill="#184a7e"></path><path d="M 0,500 C 96,469.8 288,348.4 480,349 C 672,349.6 768,497.8 960,503 C 1152,508.2 1344,400.6 1440,375L1440 560L0 560z" fill="#2264ab"></path></g><defs><mask id="SvgjsMask1001"><rect width="1440" height="560" fill="#ffffff"></rect></mask></defs></svg>