<?xml version="1.0" standalone="no"?>
<svg xmlns:xlink="http://www.w3.org/1999/xlink" id="wave" style="transform:rotate(0deg); transition: 0.3s" viewBox="0 0 1440 490" version="1.1" xmlns="http://www.w3.org/2000/svg"><defs><linearGradient id="sw-gradient-0" x1="0" x2="0" y1="1" y2="0"><stop stop-color="rgba(248.49, 248.49, 248.49, 1)" offset="0%"/><stop stop-color="rgba(0, 153, 255, 1)" offset="100%"/></linearGradient></defs><path style="transform:translate(0, 0px); opacity:1" fill="url(#sw-gradient-0)" d="M0,441L80,375.7C160,310,320,180,480,138.8C640,98,800,147,960,163.3C1120,180,1280,163,1440,204.2C1600,245,1760,343,1920,383.8C2080,425,2240,408,2400,359.3C2560,310,2720,229,2880,196C3040,163,3200,180,3360,220.5C3520,261,3680,327,3840,302.2C4000,278,4160,163,4320,114.3C4480,65,4640,82,4800,114.3C4960,147,5120,196,5280,204.2C5440,212,5600,180,5760,204.2C5920,229,6080,310,6240,343C6400,376,6560,359,6720,294C6880,229,7040,114,7200,98C7360,82,7520,163,7680,187.8C7840,212,8000,180,8160,212.3C8320,245,8480,343,8640,334.8C8800,327,8960,212,9120,179.7C9280,147,9440,196,9600,245C9760,294,9920,343,10080,359.3C10240,376,10400,359,10560,343C10720,327,10880,310,11040,294C11200,278,11360,261,11440,253.2L11520,245L11520,490L11440,490C11360,490,11200,490,11040,490C10880,490,10720,490,10560,490C10400,490,10240,490,10080,490C9920,490,9760,490,9600,490C9440,490,9280,490,9120,490C8960,490,8800,490,8640,490C8480,490,8320,490,8160,490C8000,490,7840,490,7680,490C7520,490,7360,490,7200,490C7040,490,6880,490,6720,490C6560,490,6400,490,6240,490C6080,490,5920,490,5760,490C5600,490,5440,490,5280,490C5120,490,4960,490,4800,490C4640,490,4480,490,4320,490C4160,490,4000,490,3840,490C3680,490,3520,490,3360,490C3200,490,3040,490,2880,490C2720,490,2560,490,2400,490C2240,490,2080,490,1920,490C1760,490,1600,490,1440,490C1280,490,1120,490,960,490C800,490,640,490,480,490C320,490,160,490,80,490L0,490Z"/><defs><linearGradient id="sw-gradient-1" x1="0" x2="0" y1="1" y2="0"><stop stop-color="rgba(246.213, 246.213, 246.213, 1)" offset="0%"/><stop stop-color="rgba(0, 153, 255, 1)" offset="100%"/></linearGradient></defs><path style="transform:translate(0, 50px); opacity:0.9" fill="url(#sw-gradient-1)" d="M0,147L80,130.7C160,114,320,82,480,57.2C640,33,800,16,960,40.8C1120,65,1280,131,1440,163.3C1600,196,1760,196,1920,220.5C2080,245,2240,294,2400,269.5C2560,245,2720,147,2880,98C3040,49,3200,49,3360,65.3C3520,82,3680,114,3840,147C4000,180,4160,212,4320,187.8C4480,163,4640,82,4800,81.7C4960,82,5120,163,5280,196C5440,229,5600,212,5760,228.7C5920,245,6080,294,6240,318.5C6400,343,6560,343,6720,285.8C6880,229,7040,114,7200,114.3C7360,114,7520,229,7680,261.3C7840,294,8000,245,8160,236.8C8320,229,8480,261,8640,236.8C8800,212,8960,131,9120,130.7C9280,131,9440,212,9600,236.8C9760,261,9920,229,10080,179.7C10240,131,10400,65,10560,65.3C10720,65,10880,131,11040,171.5C11200,212,11360,229,11440,236.8L11520,245L11520,490L11440,490C11360,490,11200,490,11040,490C10880,490,10720,490,10560,490C10400,490,10240,490,10080,490C9920,490,9760,490,9600,490C9440,490,9280,490,9120,490C8960,490,8800,490,8640,490C8480,490,8320,490,8160,490C8000,490,7840,490,7680,490C7520,490,7360,490,7200,490C7040,490,6880,490,6720,490C6560,490,6400,490,6240,490C6080,490,5920,490,5760,490C5600,490,5440,490,5280,490C5120,490,4960,490,4800,490C4640,490,4480,490,4320,490C4160,490,4000,490,3840,490C3680,490,3520,490,3360,490C3200,490,3040,490,2880,490C2720,490,2560,490,2400,490C2240,490,2080,490,1920,490C1760,490,1600,490,1440,490C1280,490,1120,490,960,490C800,490,640,490,480,490C320,490,160,490,80,490L0,490Z"/><defs><linearGradient id="sw-gradient-2" x1="0" x2="0" y1="1" y2="0"><stop stop-color="rgba(253.043, 253.043, 253.043, 1)" offset="0%"/><stop stop-color="rgba(0, 153, 255, 1)" offset="100%"/></linearGradient></defs><path style="transform:translate(0, 100px); opacity:0.8" fill="url(#sw-gradient-2)" d="M0,392L80,334.8C160,278,320,163,480,138.8C640,114,800,180,960,196C1120,212,1280,180,1440,163.3C1600,147,1760,147,1920,187.8C2080,229,2240,310,2400,351.2C2560,392,2720,392,2880,383.8C3040,376,3200,359,3360,326.7C3520,294,3680,245,3840,261.3C4000,278,4160,359,4320,334.8C4480,310,4640,180,4800,163.3C4960,147,5120,245,5280,253.2C5440,261,5600,180,5760,179.7C5920,180,6080,261,6240,285.8C6400,310,6560,278,6720,261.3C6880,245,7040,245,7200,236.8C7360,229,7520,212,7680,179.7C7840,147,8000,98,8160,89.8C8320,82,8480,114,8640,114.3C8800,114,8960,82,9120,89.8C9280,98,9440,147,9600,163.3C9760,180,9920,163,10080,196C10240,229,10400,310,10560,326.7C10720,343,10880,294,11040,228.7C11200,163,11360,82,11440,40.8L11520,0L11520,490L11440,490C11360,490,11200,490,11040,490C10880,490,10720,490,10560,490C10400,490,10240,490,10080,490C9920,490,9760,490,9600,490C9440,490,9280,490,9120,490C8960,490,8800,490,8640,490C8480,490,8320,490,8160,490C8000,490,7840,490,7680,490C7520,490,7360,490,7200,490C7040,490,6880,490,6720,490C6560,490,6400,490,6240,490C6080,490,5920,490,5760,490C5600,490,5440,490,5280,490C5120,490,4960,490,4800,490C4640,490,4480,490,4320,490C4160,490,4000,490,3840,490C3680,490,3520,490,3360,490C3200,490,3040,490,2880,490C2720,490,2560,490,2400,490C2240,490,2080,490,1920,490C1760,490,1600,490,1440,490C1280,490,1120,490,960,490C800,490,640,490,480,490C320,490,160,490,80,490L0,490Z"/><defs><linearGradient id="sw-gradient-3" x1="0" x2="0" y1="1" y2="0"><stop stop-color="rgba(248.49, 248.49, 248.49, 1)" offset="0%"/><stop stop-color="rgba(0, 153, 255, 1)" offset="100%"/></linearGradient></defs><path style="transform:translate(0, 150px); opacity:0.7" fill="url(#sw-gradient-3)" d="M0,0L80,65.3C160,131,320,261,480,326.7C640,392,800,392,960,375.7C1120,359,1280,327,1440,334.8C1600,343,1760,392,1920,359.3C2080,327,2240,212,2400,155.2C2560,98,2720,98,2880,81.7C3040,65,3200,33,3360,73.5C3520,114,3680,229,3840,245C4000,261,4160,180,4320,155.2C4480,131,4640,163,4800,147C4960,131,5120,65,5280,81.7C5440,98,5600,196,5760,269.5C5920,343,6080,392,6240,383.8C6400,376,6560,310,6720,277.7C6880,245,7040,245,7200,253.2C7360,261,7520,278,7680,253.2C7840,229,8000,163,8160,114.3C8320,65,8480,33,8640,89.8C8800,147,8960,294,9120,294C9280,294,9440,147,9600,81.7C9760,16,9920,33,10080,32.7C10240,33,10400,16,10560,81.7C10720,147,10880,294,11040,326.7C11200,359,11360,278,11440,236.8L11520,196L11520,490L11440,490C11360,490,11200,490,11040,490C10880,490,10720,490,10560,490C10400,490,10240,490,10080,490C9920,490,9760,490,9600,490C9440,490,9280,490,9120,490C8960,490,8800,490,8640,490C8480,490,8320,490,8160,490C8000,490,7840,490,7680,490C7520,490,7360,490,7200,490C7040,490,6880,490,6720,490C6560,490,6400,490,6240,490C6080,490,5920,490,5760,490C5600,490,5440,490,5280,490C5120,490,4960,490,4800,490C4640,490,4480,490,4320,490C4160,490,4000,490,3840,490C3680,490,3520,490,3360,490C3200,490,3040,490,2880,490C2720,490,2560,490,2400,490C2240,490,2080,490,1920,490C1760,490,1600,490,1440,490C1280,490,1120,490,960,490C800,490,640,490,480,490C320,490,160,490,80,490L0,490Z"/></svg>